<svg xmlns="http://www.w3.org/2000/svg" viewBox="0 0 224.431 251.923">
	<g fill-rule="evenodd" stroke="#000" stroke-width="1.33333">
		<g fill="#535353">
			<path d="M96.653 24.004l4.235 66.2777h-8.47zM127.777 24.004l4.235 66.2777h-8.471z"/>
		</g>
		<path fill="#535353" d="M112.216 153.4507l18.501 73.771H93.714z"/>
		<path fill="#b5b5b5" d="M112.216.1507l38.398 165.497 9.312-87.852 63.616 140.046-76.626 33.066v-39.758H77.513v39.758L.886 217.8417l63.618-140.046 9.31 87.864z"/>
		<path fill="#89e1fe" d="M112.216 112.6917c8.986 0 16.27 17.716 16.27 39.57 0 21.853-7.284 39.569-16.27 39.569-8.987 0-16.271-17.716-16.271-39.569 0-21.854 7.284-39.57 16.271-39.57z"/>
	</g>
</svg>